HIERARCHY
ROOT Root
{
	OFFSET 0.00000 0.00000 0.00000
	CHANNELS 6 Xposition Yposition Zposition Zrotation Xrotation Yrotation
	JOINT Hips
	{
		OFFSET 0 0 0	
		CHANNELS 3 Zrotation Xrotation Yrotation
		JOINT Spine
		{
			OFFSET 0 4 0	
			CHANNELS 3 Zrotation Xrotation Yrotation
			JOINT Spine1
			{
				OFFSET 0 19.4 0	
				CHANNELS 3 Zrotation Xrotation Yrotation
				JOINT Spine2
				{
					OFFSET 0 16.6 0	
					CHANNELS 3 Zrotation Xrotation Yrotation
					JOINT LeftCollar
					{
						OFFSET 0 10 0	
						CHANNELS 3 Zrotation Xrotation Yrotation
						JOINT LeftArm
						{
							OFFSET 15.6 -2 3	
							CHANNELS 3 Zrotation Xrotation Yrotation
							JOINT LeftForeArm
							{
								OFFSET 3.5 -27 -1	
								CHANNELS 3 Zrotation Xrotation Yrotation
								JOINT LeftHand
								{
									OFFSET 1 -27 1	
									CHANNELS 3 Zrotation Xrotation Yrotation
									End Site
									{
										OFFSET 0 -15 0
									}
								}
							}
						}
					}
					JOINT RightCollar
					{
						OFFSET 0 10 0	
						CHANNELS 3 Zrotation Xrotation Yrotation
						JOINT RightArm
						{
							OFFSET -15.6 -2 3	
							CHANNELS 3 Zrotation Xrotation Yrotation
							JOINT RightForeArm
							{
								OFFSET -3.5 -27 -1	
								CHANNELS 3 Zrotation Xrotation Yrotation
								JOINT RightHand
								{
									OFFSET -1 -27 1	
									CHANNELS 3 Zrotation Xrotation Yrotation
									End Site
									{
										OFFSET 0 -15 0
									}
								}
							}
						}
					}
					JOINT Neck
					{
						OFFSET 0 10 0	
						CHANNELS 3 Zrotation Xrotation Yrotation
						JOINT Head
						{
							OFFSET 0 12.7 3	
							CHANNELS 3 Zrotation Xrotation Yrotation
							End Site
							{
								OFFSET 0 12.7 3
							}
						}
					}
				}
			}
		}
	}
	JOINT LeftHip
	{
		OFFSET 0 0 0	
		CHANNELS 3 Zrotation Xrotation Yrotation
		JOINT LeftUpLeg
		{
			OFFSET 8.8 -6 0	
			CHANNELS 3 Zrotation Xrotation Yrotation
			JOINT LeftLeg
			{
				OFFSET 0 -39 2	
				CHANNELS 3 Zrotation Xrotation Yrotation
				JOINT LeftFoot
				{
					OFFSET 0 -43 -2	
					CHANNELS 3 Zrotation Xrotation Yrotation
					JOINT LeftFootFront
					{
						OFFSET 0 -7 8.5	
						CHANNELS 3 Zrotation Xrotation Yrotation
						End Site
						{
							OFFSET 0 -0.5 9
						}
					}
				}
				JOINT LeftHeel
				{
					OFFSET 0 -43 -2	
					CHANNELS 3 Zrotation Xrotation Yrotation
					End Site
					{
						OFFSET 0 -7.5 -5
					}
				}
			}
		}
	}
	JOINT RightHip
	{
		OFFSET 0 0 0	
		CHANNELS 3 Zrotation Xrotation Yrotation
		JOINT RightUpLeg
		{
			OFFSET -8.8 -6 0	
			CHANNELS 3 Zrotation Xrotation Yrotation
			JOINT RightLeg
			{
				OFFSET 0 -39 2	
				CHANNELS 3 Zrotation Xrotation Yrotation
				JOINT RightFoot
				{
					OFFSET 0 -43 -2	
					CHANNELS 3 Zrotation Xrotation Yrotation
					JOINT RightFootFront
					{
						OFFSET 0 -7 8.5	
						CHANNELS 3 Zrotation Xrotation Yrotation
						End Site
						{
							OFFSET 0 -0.5 9
						}
					}
				}
				JOINT RightHeel
				{
					OFFSET 0 -43 -2	
					CHANNELS 3 Zrotation Xrotation Yrotation
					End Site
					{
						OFFSET 0 -7.5 -5
					}
				}
			}
		}
	}
}
MOTION
Frames: 16
Frame Time: 0.025
-8.1393 80.772 -17.104 -0 0 -0 2.9443 61.368 -5.582 -10.737 -2.8993 0.44052 -10.737 -2.8993 0.44052 -9.0195 -2.4306 0.40666 -0 0 -0 -0 0 -0 32.452 -64.264 -9.8398 16.361 -20.3 -8.8102 -0 0 -0 66.279 -40.476 47.942 -14.041 -30.904 -32.062 173.78 -1.9203 141.73 12.171 -5.861 12.404 3.2549 -8.1505 13.323 2.9443 61.368 -5.582 120.93 -68.461 109.49 -8.0515 76.09 0.99089 -0 0 -0 -0 0 -0 -0 0 -0 2.9443 61.368 -5.582 -76.035 -58.14 -85.408 7.1206 20.783 -3.7304 -0 0 -0 -0 0 6.4033e-07 -0 0 -0 
-7.9283 80.778 -17.224 -0 0 -0 1.5804 61.138 -4.152 -10.718 -2.7899 0.48322 -10.718 -2.7898 0.48322 -9.0031 -2.3381 0.44109 -0 0 -0 -0 0 -0 31.888 -60.595 -12.525 16.642 -19.691 -10.063 -0 0 -0 66.985 -40.731 48.598 -14.672 -29.41 -31.932 171.61 -1.3229 141.8 12.115 -6.079 12.429 3.219 -8.2716 13.36 1.5804 61.138 -4.152 121.09 -68.895 109.34 -6.5974 77.533 -2.3773 -0 0 -0 -0 0 -0 -0 0 -0 1.5804 61.138 -4.152 -74.639 -57.905 -84.184 6.8612 20.298 -3.8154 -0 0 -0 -0 0 -0 -0 0 -0 
-7.7238 80.781 -17.339 -0 0 -0 0.21184 60.881 -2.7278 -10.705 -2.653 0.53659 -10.705 -2.653 0.53659 -8.9928 -2.2225 0.48417 -0 0 -0 -0 0 -0 31.119 -57.23 -15.178 16.897 -19.602 -10.676 -0 0 -0 67.852 -41.033 49.284 -15.316 -27.599 -31.811 169.28 -0.70017 141.94 12.068 -6.3227 12.406 3.1872 -8.3939 13.354 0.21184 60.881 -2.7278 121.22 -69.317 109.17 -6.0342 78.543 -4.8722 -0 0 -0 -0 0 -0 -0 0 -0 0.21184 60.881 -2.7278 -73.199 -57.669 -82.883 6.6343 19.804 -3.9764 -0 0 -0 -0 0 5.8697e-07 -0 0 -0 
-7.5265 80.782 -17.449 -0 0 -0 -1.1171 60.634 -1.3326 -10.714 -2.5082 0.58379 -10.714 -2.5082 0.58379 -9.0003 -2.1002 0.52204 -0 0 -0 -0 0 -0 30.165 -54.1 -17.632 17.201 -19.982 -11.005 -0 0 -0 68.899 -41.304 50.087 -16.035 -25.554 -31.816 167.04 -0.20799 142.18 12.052 -6.5602 12.355 3.1676 -8.5042 13.314 -1.1171 60.634 -1.3326 121.43 -69.718 109.08 -7.0243 79.174 -5.8609 -0 0 -0 -0 0 -0 -0 0 -0 -1.1171 60.634 -1.3326 -71.811 -57.425 -81.596 6.4264 19.307 -4.1804 -0 0 -0 0 0 -4.2689e-07 -0 0 -0 
-7.3367 80.78 -17.553 -0 0 -0 -2.3944 60.426 0.021541 -10.73 -2.3579 0.61832 -10.73 -2.3579 0.61833 -9.0141 -1.9735 0.54921 -0 0 -0 -0 0 -0 28.969 -51.164 -19.586 17.605 -20.645 -11.044 -0 0 -0 70.087 -41.491 51.144 -16.881 -23.349 -32.102 165.09 0.18421 142.46 12.04 -6.7986 12.294 3.1446 -8.6132 13.253 -2.3944 60.426 0.021541 121.77 -70.079 109.19 -9.6085 79.508 -5.2307 -0 0 -0 -0 0 -0 -0 0 -0 -2.3944 60.426 0.021541 -70.538 -57.173 -80.401 6.2323 18.815 -4.4004 -0 0 -0 -0 0 5.8697e-07 -0 0 -0 
-7.1548 80.774 -17.65 -0 0 -0 -3.6313 60.251 1.3253 -10.736 -2.2006 0.65741 -10.736 -2.2006 0.65741 -9.0195 -1.8408 0.58009 -0 0 -0 -0 0 -0 27.446 -48.56 -20.689 18.146 -21.36 -10.179 -0 0 -0 71.272 -41.608 52.452 -17.827 -21.055 -32.685 163.63 0.61661 142.7 12 -7.0513 12.202 3.1033 -8.7303 13.163 -3.6313 60.251 1.3253 122.22 -70.393 109.44 -13.542 79.638 -2.9744 -0 0 -0 -0 0 -0 -0 0 -0 -3.6313 60.251 1.3253 -69.358 -56.92 -79.28 6.0616 18.328 -4.6344 -0 0 -0 -0 0 4.8025e-07 -0 0 -0 
-6.981 80.763 -17.74 -0 0 -0 -4.8304 60.1 2.5687 -10.729 -2.0446 0.71752 -10.729 -2.0446 0.71752 -9.0134 -1.709 0.62861 -0 0 -0 -0 0 -0 25.91 -46.754 -20.905 18.758 -21.932 -7.89 -0 0 -0 72.334 -41.713 53.84 -18.795 -18.733 -33.275 162.72 1.1613 143.05 11.923 -7.3091 12.05 3.0379 -8.8502 13.03 -4.8304 60.1 2.5687 122.74 -70.667 109.82 -18.126 79.545 0.4566 -0 0 -0 0 0 -2.1344e-07 -0 0 -0 -4.8304 60.1 2.5687 -68.25 -56.671 -78.221 5.9194 17.848 -4.8811 -0 0 -0 0 0 -4.8025e-07 -0 0 -0 
-6.8156 80.749 -17.823 -0 0 -0 -6.0074 59.981 3.7695 -10.704 -1.9144 0.7917 -10.704 -1.9144 0.7917 -8.9922 -1.5987 0.68925 -0 0 -0 -0 0 -0 24.891 -46.09 -20.815 19.494 -22.262 -4.4573 -0 0 -0 73.219 -41.84 55.092 -19.701 -16.469 -33.609 162.23 1.8447 143.53 11.808 -7.5222 11.856 2.9511 -8.9449 12.87 -6.0074 59.981 3.7695 123.45 -70.9 110.43 -21.825 79.111 3.5716 -0 0 -0 4.2689e-07 -7.9514e-16 -2.1344e-07 -0 0 -0 -6.0074 59.981 3.7695 -67.226 -56.435 -77.275 5.7956 17.38 -5.1127 -0 0 -0 -0 0 3.7353e-07 -0 0 -0 
-6.6592 80.731 -17.899 -0 0 -0 -7.2142 59.884 4.9724 -10.647 -1.8227 0.87226 -10.647 -1.8227 0.87226 -8.9445 -1.5207 0.75566 -0 0 -0 -0 0 -0 24.376 -46.268 -21.009 20.462 -22.358 -0.40158 -0 0 -0 73.911 -42.006 56.068 -20.468 -14.397 -33.703 161.95 2.6522 144.05 11.646 -7.6733 11.657 2.8456 -9.0089 12.717 -7.2142 59.884 4.9724 124.57 -70.982 111.55 -23.73 78.612 5.3465 -0 0 -0 -4.2689e-07 0 0 -0 0 -0 -7.2142 59.884 4.9724 -66.255 -56.23 -76.47 5.6837 16.939 -5.3155 -0 0 -0 0 0 -3.2017e-07 -0 0 -0 
-6.5125 80.71 -17.967 -0 0 -0 -8.4823 59.792 6.1895 -10.55 -1.7735 0.97332 -10.55 -1.7735 0.97332 -8.8634 -1.4782 0.83975 -0 0 -0 -0 0 -0 23.875 -46.622 -21.322 21.755 -22.697 2.4773 -0 0 -0 74.428 -42.238 56.737 -21.094 -12.613 -33.685 161.75 3.5106 144.57 11.422 -7.7728 11.453 2.7127 -9.0539 12.583 -8.4823 59.792 6.1895 126.54 -70.536 113.67 -25.451 78.673 7.0781 -0 0 -0 -0 0 2.1344e-07 -0 0 -0 -8.4823 59.792 6.1895 -65.295 -56.07 -75.755 5.5988 16.54 -5.5389 -0 0 -0 -0 0 7.4705e-07 -0 0 -0 
-6.3759 80.686 -18.026 -0 0 -0 -9.7768 59.66 7.39 -10.421 -1.7438 1.1037 -10.421 -1.7438 1.1037 -8.7554 -1.4517 0.94866 -0 0 -0 -0 0 -0 23.193 -46.809 -21.367 23.057 -23.434 3.3127 -0 0 -0 74.858 -42.536 57.229 -21.651 -11.129 -33.635 161.56 4.3263 145.12 11.139 -7.8549 11.232 2.5528 -9.0942 12.458 -9.7768 59.66 7.39 129.3 -69.385 116.49 -28.885 79.441 10.433 -0 0 -0 -0 0 1.0672e-07 -0 0 -0 -9.7768 59.66 7.39 -64.298 -55.934 -74.996 5.559 16.189 -5.8492 -0 0 -0 0 0 -8.5377e-07 -0 0 -0 
-6.2501 80.66 -18.077 -0 0 -0 -11.004 59.389 8.5205 -10.282 -1.6628 1.2462 -10.282 -1.6628 1.2462 -8.6387 -1.3822 1.0671 -0 0 -0 -0 0 -0 22.657 -46.952 -21.231 24.031 -24.062 3.3765 -0 0 -0 75.374 -42.863 57.786 -22.211 -9.936 -33.622 161.37 5.0217 145.68 10.848 -7.9935 11.015 2.3936 -9.1481 12.339 -11.004 59.389 8.5205 130.97 -68.377 117.79 -33.471 79.941 14.951 -0 0 -0 4.2689e-07 3.9757e-16 1.0672e-07 -0 0 -0 -11.004 59.389 8.5205 -63.165 -55.74 -73.987 5.5723 15.869 -6.2656 -0 0 -0 -0 0 2.1344e-07 -0 0 -0 
-6.1355 80.634 -18.119 -0 0 -0 -12.074 58.999 9.5299 -10.161 -1.5287 1.3719 -10.161 -1.5287 1.3719 -8.5377 -1.2681 1.1709 -0 0 -0 -0 0 -0 22.483 -47.124 -21.112 24.805 -24.404 3.755 -0 0 -0 76.047 -43.163 58.475 -22.774 -9.0208 -33.684 161.15 5.5557 146.14 10.61 -8.176 10.814 2.2715 -9.2045 12.216 -12.074 58.999 9.5299 130.96 -68.298 116.74 -37.866 79.424 19.47 -0 0 -0 -0 0 1.0672e-07 -0 0 -0 -12.074 58.999 9.5299 -61.973 -55.464 -72.792 5.6207 15.574 -6.724 -0 0 -0 0 0 -7.4705e-07 -0 0 -0 
-6.0325 80.608 -18.152 -0 0 -0 -12.991 58.688 10.386 -10.079 -1.4435 1.478 -10.079 -1.4435 1.478 -8.4682 -1.1954 1.2589 -0 0 -0 -0 0 -0 22.429 -47.183 -21.019 25.525 -24.755 4.4632 -0 0 -0 76.734 -43.419 59.128 -23.29 -8.3326 -33.823 160.95 5.9536 146.47 10.46 -8.2931 10.601 2.2031 -9.2375 12.075 -12.991 58.688 10.386 130.43 -68.764 114.35 -42.698 78.061 24.625 -0 0 -0 -0 0 1.0672e-07 -0 0 -0 -12.991 58.688 10.386 -60.972 -55.237 -71.747 5.665 15.311 -7.1315 -0 0 -0 -0 0 8.5377e-07 -0 0 -0 
-5.9415 80.583 -18.179 -0 0 -0 -13.767 58.574 11.055 -10.046 -1.4636 1.5865 -10.046 -1.4636 1.5865 -8.4411 -1.2111 1.3502 -0 0 -0 -0 0 -0 22.273 -47.1 -20.976 26.144 -25.274 5.2956 -0 0 -0 77.272 -43.681 59.588 -23.702 -7.7997 -33.972 160.87 6.275 146.71 10.4 -8.2929 10.34 2.1832 -9.2374 11.907 -13.767 58.574 11.055 129.8 -69.208 111.45 -47.091 76.235 29.432 -0 0 -0 4.2689e-07 0 -0 -0 0 -0 -13.767 58.574 11.055 -60.299 -55.16 -70.999 5.691 15.087 -7.4645 -0 0 -0 -0 0 3.2017e-07 -0 0 -0 
-5.8628 80.562 -18.2 -0 0 -0 -14.399 58.597 11.538 -10.052 -1.5631 1.6964 -10.052 -1.5631 1.6964 -8.4464 -1.2934 1.4438 -0 0 -0 -0 0 -0 22.085 -46.958 -20.989 26.578 -25.889 6.2694 -0 0 -0 77.568 -43.944 59.818 -23.972 -7.4037 -34.1 160.94 6.5698 146.89 10.406 -8.1868 10.064 2.1965 -9.1947 11.739 -14.399 58.597 11.538 128.74 -69.485 108.46 -49.674 74.407 32.415 -0 0 -0 4.2689e-07 3.9757e-16 1.0672e-07 -0 0 -0 -14.399 58.597 11.538 -59.877 -55.19 -70.408 5.7244 14.9 -7.7978 -0 0 -0 -0 0 -0 -0 0 -0 
